<svg width="20" height="24" fill="none" xmlns="http://www.w3.org/2000/svg"><path d="M8.143 15.873c-.63 3.304-1.4 6.472-3.681 8.127-.703-4.994 1.033-8.744 1.84-12.726-1.376-2.316.166-6.974 3.066-5.826 3.57 1.412-3.09 8.607 1.38 9.507 4.67.937 6.575-8.1 3.68-11.039-4.182-4.245-12.175-.1-11.191 5.978.238 1.486 1.773 1.936.613 3.987C1.173 13.288.373 11.176.477 8.36.642 3.753 4.615.529 8.602.08c5.04-.565 9.772 1.851 10.426 6.593.736 5.353-2.275 11.15-7.666 10.733-1.462-.114-2.074-.838-3.219-1.534Z" fill="#fff"/></svg>