<svg width="25" height="20" fill="none" xmlns="http://www.w3.org/2000/svg"><path d="M24.467 2.56a9.871 9.871 0 0 1-2.828.774A4.94 4.94 0 0 0 23.805.61a9.84 9.84 0 0 1-3.127 1.195 4.924 4.924 0 0 0-8.39 4.49A13.98 13.98 0 0 1 2.138 1.15a4.907 4.907 0 0 0-.666 2.476c0 1.708.87 3.216 2.19 4.099a4.908 4.908 0 0 1-2.23-.616v.061A4.927 4.927 0 0 0 5.382 12a4.956 4.956 0 0 1-2.225.085 4.927 4.927 0 0 0 4.6 3.42 9.883 9.883 0 0 1-7.289 2.04 13.928 13.928 0 0 0 7.547 2.213c9.058 0 14.011-7.504 14.011-14.011 0-.212-.006-.427-.015-.636a10.004 10.004 0 0 0 2.457-2.55h-.001Z" fill="#fff"/></svg>